# xmcd
#
# Track frame offsets:
#	150
#	16000
#	29162
#	46250
#	59687
#	71012
#	82862
#	92900
#	106280
#	123320
#	136842
#	154670
#	169205
#	182445
#	191987
#	207150
#	226762
#	245737
#	263450
#	276562
#
# Disc length: 3892 seconds
#
# Revision: 4
# Processed by: cddbd v1.5.1PL0 Copyright (c) Steve Scherf et al.
# Submitted via: audiograbber 1.83.01
#
DISCID=170f3214
DTITLE=Various Artist - The Utimate Country Collection CD 2
DYEAR=1900
DGENRE=
TTITLE0=Willie Nelson - Always On My Mind
TTITLE1=Hank Locklin - Please Help Me I'm Falling
TTITLE2=Ray Price - For The Good Times
TTITLE3=Loretta Lynn - Coal Miner's Daughter
TTITLE4=Don Gibson - Oh Lonesome Me
TTITLE5=Lacy J Dalton - Hillibilly Girl With The Blues
TTITLE6=Goerge Hamilton IV - Abilene
TTITLE7=Faron Young - It's Four In The Morning
TTITLE8=Kris Kristofferson - Loving Her Was Easier
TTITLE9=Mac Davis - Baby Don't Get Hooked On Me
TTITLE10=Nanci Griffith - Lone Star State Of Mind
TTITLE11=Bellamy Brothers - If I Said You Had A Beautiful Body
TTITLE12=Dolly Parton - Here You Come Again
TTITLE13=Waylon Jennings - Theme Fron The Dukes Of Hazzard (Good Ol' Boys)
TTITLE14=Mary Chapin-Carpenter - Down at the Twist And Shout
TTITLE15=Marty Robbins - El Paso
TTITLE16=Keith Whitley - Don't Close Your Eyes
TTITLE17=Lee Greenwood - The Wind Beneath My Wings
TTITLE18=Crystal Gayle - Talking In Your Sleep
TTITLE19=Ricky Van Shelton - Crimes Of Passion
EXTD=
EXTT0=
EXTT1=
EXTT2=
EXTT3=
EXTT4=
EXTT5=
EXTT6=
EXTT7=
EXTT8=
EXTT9=
EXTT10=
EXTT11=
EXTT12=
EXTT13=
EXTT14=
EXTT15=
EXTT16=
EXTT17=
EXTT18=
EXTT19=
PLAYORDER=
